<svg 
    width="200px" 
    height="200px" 
    viewBox="0 0 24 24" 
    fill="none" 
    xmlns="http://www.w3.org/2000/svg"
>
    <!-- Book Icon -->
    <path 
        d="M4 4H14C15.1 4 16 4.9 16 6V18C16 19.1 15.1 20 14 20H4C2.9 20 2 19.1 2 18V6C2 4.9 2.9 4 4 4Z" 
        fill="#F9A825"
    />
    <path 
        d="M16 6H20C21.1 6 22 6.9 22 8V18C22 19.1 21.1 20 20 20H16V6Z" 
        fill="#43A047"
    />
    
    <!-- Graduation Cap -->
    <path 
        d="M12 1L2 6L12 11L22 6L12 1Z" 
        fill="#1E88E5"
    />
    <path 
        d="M6 10V14C6 16.5 9 19 12 19C15 19 18 16.5 18 14V10" 
        stroke="#000" 
        stroke-width="1.5" 
        stroke-linecap="round" 
        stroke-linejoin="round"
    />
</svg>
